<?xml version="1.0" encoding="UTF-8"?>
<svg id="Warstwa_1" xmlns="http://www.w3.org/2000/svg" version="1.1" viewBox="0 0 384 384" fill="currentColor">
  <!-- Generator: Adobe Illustrator 29.8.4, SVG Export Plug-In . SVG Version: 2.1.1 Build 6)  -->
  <path d="M0,111.5c9.9-24.2,40.7-34.5,64.2-41,74.8-20.6,186.9-20.6,261.2,1.8,18.7,5.7,56.1,19.5,57.8,42.5l-.2,144.3c-2.8,17.8-31,30.8-46,36.3s-16.5,6.1-20.8,6.2-4.9-1.1-6-3.7l-.4-80.1c-19.4-4.1-39-7.7-58.7-9.8-43.2-4.4-89.3-3.9-132.4,1.6-15.3,2-30.3,5.1-45.4,8.2v78.2c0,2.5-1.9,4.9-4.3,5.5-3.9.8-18.4-4.4-22.8-6-18-6.6-39.5-16.5-46.2-35.7V111.5ZM309.9,206.6v-49c0-.8,2.5-3.4,3.5-3.9,5.7-2.9,17.3-5,24.4-7.8,15-6,47.3-21.3,28.3-40.7s-81.9-31.5-110.5-34.7c-59.4-6.5-135-4.7-192.5,12.4-17.7,5.3-71.3,23.3-44,48.1s22.4,13.4,32.9,17.2,13.6,3.3,17.8,5.4,3.5,3.1,3.5,3.9v49c20.6-5.3,42-8.6,63.3-10.5,42.7-3.8,88.4-3.2,130.9,2.3s28.5,4.4,42.4,8.1ZM61.4,288.2v-124.6c-17.5-6.2-35.9-12-50.2-24.3v117.9c0,3,6.6,10,9,12,11.1,9.6,27.4,14.7,41.2,19.1ZM321.9,288.2c13.6-4.3,29.7-9.4,40.8-18.7s9.4-9.3,9.4-12.3v-117.9c-14.3,12.4-32.6,18.1-50.2,24.3v124.6Z"/>
  <path d="M172.9,276.2c9.3-4.1,28.1-4.8,36.6,1.2s8.4,9.5,9,14.9c3,27.9-6.5,39.3-34.8,37.1-11.3-.9-19.8-6.9-22.1-18.4,1.7-17.2-2.4-39.3.2-56s10.2-16.1,18.9-17c13.9-1.4,30.6-1.3,36.4,13.7,2.2,5.8,2.1,15.6-6.3,13.1-5.1-1.5-2.1-10.9-9-14.2-4.1-2-18.8-2-23-.2s-6,5.1-6,6.7v19.1ZM204.1,287.7c-3.4-3.3-17-3-21.9-2.5s-8.8,4.2-9.3,10.1-1.4,19.1,6.2,21.5,17.1,1.1,20.3.5c10.4-1.7,10-24.4,4.7-29.6Z"/>
  <path d="M246.8,238.2c15-2,36-1.1,38.9,17.6,1.5,9.8,1.3,45,0,55-2.4,17.4-20.2,19.6-34.6,18.6-9.9-.7-20.2-6.5-21.9-17.1-2.7-17.1,1.5-40.3,0-58,2.3-8.1,9.1-14.9,17.6-16.1ZM271.5,314.9c2.1-2.1,3-6.1,3.3-9.1,1-11.5,1-33.4,0-45s-2.9-10.4-9.6-11.4-23.3-1.9-24.8,8.5l.3,52.7c1.2,3.2,4.1,6.1,7.6,6.7s15.4.5,18.6,0,3.8-1.6,4.7-2.5Z"/>
  <path d="M117.7,279.4c4.7-4.7,20,3.2,21.5-9.5s.3-11.8-.5-14.5c-2.3-7.5-15.1-6.9-21.4-5.9-10,1.5-6.4,10.8-10.6,13.3s-7.6.8-8.5-2.8c-2.4-10,7-20.7,16.8-21.8,27.7-3.3,39.1,6.3,35.4,34.7s-4.9,9.5-5,10.7,2.8,4.4,3.5,6c2.4,5.4,2.4,22.2.2,27.7-7.2,18.2-48.2,16.8-51-4-.5-3.8-.1-9.7,4.8-10,9-.6,4.2,12.3,12.1,14,2.5.6,15.9.6,18.4,0,6.9-1.5,6.3-13.6,5.8-19-1.3-13.6-14-6.9-20.2-9.7s-3.7-6.7-1.3-9.1Z"/>
  <path d="M174.3,88.5c3.5-.4,7.8,1.1,10.3,3.6l22.4,32.2c6.3-7.5,11.1-20.2,23.4-15.1,5.4,2.3,14.2,16.9,18.1,22.4,3.7,5.3,16.8,22.6,18.3,27.4,2.6,8.7-2.9,16.4-11.7,17h-123.6c-8.3-.5-13.9-7.7-12.1-16,14.3-23.3,31.5-44.9,47-67.5,1.8-2.1,5.4-3.7,8.1-4ZM131.4,164.7h122c.4,0,1.7-1.1,2.6-.8l-.3-1.6-29.6-42.3c-1.2-.8-1.9.4-2.7,1.2-1.2,1.2-8.7,11.7-9,12.7-.9,3.3,6,6.1,3.6,11.8s-4.6,3.9-7.7,2.9-3.2-3.2-4.3-4.7c-10.2-13.1-18.6-29.1-28.7-42.4-2.3-3.3-4.2,1.1-5.8,3-14.4,18.6-27.1,39.5-41.2,58.4-.3.6.7,1.7,1,1.8Z"/>
</svg>