<svg width="24" height="24" viewBox="0 0 24 24" fill="none" xmlns="http://www.w3.org/2000/svg">
<path d="M11.9966 6.78748C12.2498 6.78748 12.4621 6.7029 12.6336 6.53373C12.8051 6.3644 12.8908 6.15315 12.8908 5.89998C12.8908 5.64848 12.8053 5.43557 12.6341 5.26123C12.4629 5.08707 12.2508 4.99998 11.9976 4.99998C11.7444 4.99998 11.5331 5.08698 11.3636 5.26098C11.1941 5.43482 11.1093 5.64756 11.1093 5.89923C11.1093 6.1509 11.1939 6.36182 11.3631 6.53198C11.5324 6.70232 11.7436 6.78748 11.9966 6.78748ZM12.0046 14.831C12.2318 14.831 12.4188 14.7565 12.5656 14.6075C12.7124 14.4586 12.7858 14.2708 12.7858 14.044V9.30598C12.7858 9.08331 12.711 8.89665 12.5613 8.74598C12.4115 8.59532 12.2229 8.51998 11.9956 8.51998C11.7684 8.51998 11.5814 8.59532 11.4346 8.74598C11.2878 8.89665 11.2143 9.08331 11.2143 9.30598V14.044C11.2143 14.2708 11.2892 14.4586 11.4388 14.6075C11.5887 14.7565 11.7773 14.831 12.0046 14.831ZM5.85059 18.1495L3.30509 20.695C3.03575 20.9643 2.726 21.0264 2.37584 20.8812C2.02567 20.7362 1.85059 20.4772 1.85059 20.1042V3.55373C1.85059 3.09207 2.0195 2.69181 2.35734 2.35298C2.695 2.01398 3.09384 1.84448 3.55384 1.84448H20.4463C20.908 1.84448 21.3083 2.01398 21.6471 2.35298C21.9861 2.69181 22.1556 3.09207 22.1556 3.55373V16.4462C22.1556 16.9062 21.9861 17.3051 21.6471 17.6427C21.3083 17.9806 20.908 18.1495 20.4463 18.1495H5.85059ZM5.20059 16.4462H20.4463V3.55373H3.55384V18.243L5.20059 16.4462Z" fill="currentColor"/>
</svg>
