<?xml version="1.0" encoding="UTF-8"?>
<svg id="Warstwa_1" xmlns="http://www.w3.org/2000/svg" version="1.1" viewBox="0 0 402 402">
  <!-- Generator: Adobe Illustrator 29.8.3, SVG Export Plug-In . SVG Version: 2.1.1 Build 3)  -->
  <defs>
    <style>
      .st0 {
        fill: "currentColor";
      }
    </style>
  </defs>
  <circle class="st0" cx="310" cy="91.9" r="46.7"/>
  <path class="st0" d="M197.6,0c-52.4.8-101.7,21.7-138.8,58.9C-14.2,131.8-19.2,247.3,43.6,326.1l66.9-66.9c-26.8-41.6-22-97.8,14.4-134.1,19.8-19.9,46.2-31,74.2-31.5,25.8-.4,46.4-21.7,46-47.5C244.7,20.2,223.5-.3,197.6,0Z"/>
  <path class="st0" d="M355.9,156.8h-.8c-25.5,0-46.3,20.5-46.8,46-.4,28-11.6,54.4-31.5,74.2-36.4,36.4-92.5,41.2-134.1,14.4l-66.9,66.9c36.5,29,80.8,43.6,125.1,43.6s102.9-19.6,142.1-58.8c37.1-37.1,58-86.4,58.9-138.9.4-25.8-20.2-47.1-46-47.5Z"/>
</svg>