<svg width="24" height="24" viewBox="0 0 24 24" fill="none" xmlns="http://www.w3.org/2000/svg">
<path d="M12.4268 12.52L14.3355 11.3643L16.2445 12.52C16.3318 12.5573 16.4138 12.5508 16.4905 12.5005C16.5672 12.45 16.5888 12.3799 16.5555 12.2903L16.0555 10.1033L17.7365 8.64725C17.811 8.59326 17.8344 8.52167 17.8068 8.4325C17.7789 8.34317 17.7182 8.2905 17.6245 8.2745L15.4117 8.0985L14.5315 6.0375C14.4995 5.94217 14.4355 5.89451 14.3395 5.89451C14.2437 5.89451 14.1751 5.94217 14.1337 6.0375L13.2578 8.098L11.0408 8.2745C10.9471 8.2905 10.8863 8.34317 10.8585 8.4325C10.8307 8.52167 10.8541 8.59326 10.9288 8.64725L12.6158 10.1008L12.1098 12.2903C12.0764 12.3814 12.0979 12.4518 12.1743 12.5015C12.2504 12.5512 12.3346 12.5573 12.4268 12.52ZM8.1115 17.6038C7.6515 17.6038 7.25258 17.4343 6.91475 17.0955C6.57708 16.7565 6.40825 16.3562 6.40825 15.8945V3.45826C6.40825 2.99826 6.57708 2.59934 6.91475 2.26151C7.25258 1.92384 7.6515 1.755 8.1115 1.755H20.5538C21.0154 1.755 21.4158 1.92384 21.7548 2.26151C22.0936 2.59934 22.263 2.99826 22.263 3.45826V15.8945C22.263 16.3562 22.0936 16.7565 21.7548 17.0955C21.4158 17.4343 21.0154 17.6038 20.5538 17.6038H8.1115ZM8.1115 15.8945H20.5538V3.45826H8.1115V15.8945ZM5.313 22.22C4.839 22.278 4.419 22.1683 4.053 21.8908C3.68683 21.6133 3.47275 21.2383 3.41075 20.7658L1.82275 8.42925C1.76092 7.95709 1.87708 7.52934 2.17125 7.14601C2.46542 6.76284 2.84875 6.54826 3.32125 6.50226L4.13325 6.42726C4.39442 6.39792 4.611 6.46934 4.783 6.6415C4.95483 6.81384 5.04075 7.02784 5.04075 7.28351C5.04075 7.51301 4.96858 7.7045 4.82425 7.85801C4.67992 8.01167 4.50325 8.1025 4.29425 8.1305L3.526 8.2055L5.13325 20.5478L19.2208 18.8348C19.4486 18.8014 19.6575 18.8592 19.8475 19.008C20.0377 19.1567 20.1497 19.3485 20.1835 19.5835C20.2173 19.8183 20.1637 20.0237 20.0227 20.1995C19.8819 20.3752 19.6892 20.4797 19.4445 20.513L5.313 22.22Z" fill="currentColor"/>
</svg>
