<svg width="24" height="24" viewBox="0 0 24 24" fill="none" xmlns="http://www.w3.org/2000/svg">
<path d="M4.23396 11.944L8.56221 16.2723C8.73205 16.4463 8.81596 16.6462 8.81396 16.872C8.81196 17.0979 8.72605 17.2978 8.55621 17.4718C8.38221 17.6456 8.17813 17.7315 7.94396 17.7295C7.7098 17.7277 7.50771 17.6418 7.33771 17.4718L2.38771 12.5528C2.29638 12.4614 2.23005 12.3661 2.18871 12.2668C2.14755 12.1676 2.12696 12.062 2.12696 11.95C2.12696 11.838 2.14755 11.7324 2.18871 11.6333C2.23005 11.5339 2.29638 11.4386 2.38771 11.3473L5.78671 7.95428L1.88271 4.05053C1.72888 3.89653 1.65096 3.71136 1.64896 3.49503C1.64696 3.27886 1.72488 3.09178 1.88271 2.93378C2.04071 2.77578 2.22788 2.69678 2.44421 2.69678C2.66055 2.69678 2.84771 2.77578 3.00571 2.93378L21.0665 20.9945C21.2205 21.1485 21.2975 21.3315 21.2975 21.5435C21.2975 21.7555 21.2205 21.9385 21.0665 22.0925C20.9085 22.2504 20.7224 22.3293 20.5082 22.3293C20.2939 22.3293 20.1077 22.2504 19.9497 22.0925L7.00521 9.17278L4.23396 11.944ZM17.6387 15.3023C17.4689 15.1323 17.384 14.9302 17.384 14.696C17.384 14.4617 17.4689 14.2576 17.6387 14.0838L19.7725 11.956L15.4442 7.62778C15.2704 7.45378 15.1886 7.25386 15.199 7.02803C15.2093 6.80219 15.2994 6.60228 15.4692 6.42828C15.6432 6.25444 15.8473 6.16853 16.0815 6.17053C16.3156 6.17236 16.5177 6.25828 16.6877 6.42828L21.6127 11.3473C21.704 11.4386 21.7704 11.5339 21.8117 11.6333C21.8529 11.7324 21.8735 11.838 21.8735 11.95C21.8735 12.062 21.8529 12.1676 21.8117 12.2668C21.7704 12.3661 21.704 12.4614 21.6127 12.5528L18.8322 15.3273C18.6624 15.4971 18.4635 15.5789 18.2355 15.5725C18.0076 15.5662 17.8087 15.4761 17.6387 15.3023Z" fill="currentColor"/>
</svg>
