<svg width="24" height="24" viewBox="0 0 24 24" fill="none" xmlns="http://www.w3.org/2000/svg">
<path d="M7.43434 13.6075V14.2917C7.43434 14.4471 7.48984 14.5802 7.60084 14.6912C7.71167 14.8021 7.84475 14.8575 8.00009 14.8575C8.15542 14.8575 8.2885 14.8021 8.39934 14.6912C8.51034 14.5802 8.56584 14.4471 8.56584 14.2917V11.7857C8.56584 11.6306 8.51034 11.4975 8.39934 11.3865C8.2885 11.2755 8.15542 11.22 8.00009 11.22C7.84475 11.22 7.71167 11.2755 7.60084 11.3865C7.48984 11.4975 7.43434 11.6306 7.43434 11.7857V12.47H6.50009C6.34475 12.47 6.21167 12.5255 6.10084 12.6365C5.98984 12.7475 5.93434 12.8806 5.93434 13.0357C5.93434 13.1891 5.99134 13.3227 6.10534 13.4367C6.21917 13.5506 6.35275 13.6075 6.50609 13.6075H7.43434ZM10.6376 13.6075H17.5001C17.6554 13.6075 17.7885 13.5506 17.8993 13.4367C18.0103 13.3227 18.0658 13.1891 18.0658 13.0357C18.0658 12.8826 18.0103 12.75 17.8993 12.638C17.7885 12.526 17.6554 12.47 17.5001 12.47H10.6376C10.4836 12.47 10.3498 12.5255 10.2361 12.6365C10.1226 12.7475 10.0658 12.8806 10.0658 13.0357C10.0658 13.1891 10.1228 13.3227 10.2368 13.4367C10.3507 13.5506 10.4843 13.6075 10.6376 13.6075ZM16.5658 9.46998H17.5001C17.6554 9.46998 17.7885 9.41306 17.8993 9.29923C18.0103 9.18523 18.0658 9.05198 18.0658 8.89948C18.0658 8.74715 18.0103 8.61357 17.8993 8.49873C17.7885 8.38407 17.6554 8.32673 17.5001 8.32673H16.5658V7.64823C16.5658 7.49423 16.5103 7.36048 16.3993 7.24698C16.2885 7.13348 16.1554 7.07673 16.0001 7.07673C15.8448 7.07673 15.7117 7.13348 15.6008 7.24698C15.4898 7.36048 15.4343 7.49423 15.4343 7.64823V10.1482C15.4343 10.3024 15.4898 10.4362 15.6008 10.5497C15.7117 10.6632 15.8448 10.72 16.0001 10.72C16.1554 10.72 16.2885 10.6632 16.3993 10.5497C16.5103 10.4362 16.5658 10.3024 16.5658 10.1482V9.46998ZM6.50609 9.46998H13.3686C13.5209 9.46998 13.6533 9.41306 13.7656 9.29923C13.8781 9.18523 13.9343 9.05198 13.9343 8.89948C13.9343 8.74715 13.8781 8.61357 13.7656 8.49873C13.6533 8.38407 13.5209 8.32673 13.3686 8.32673H6.50009C6.34475 8.32673 6.21167 8.38357 6.10084 8.49723C5.98984 8.61107 5.93434 8.74515 5.93434 8.89948C5.93434 9.05198 5.99134 9.18523 6.10534 9.29923C6.21917 9.41306 6.35275 9.46998 6.50609 9.46998ZM3.55384 19.1495C3.09384 19.1495 2.695 18.9806 2.35734 18.6427C2.0195 18.3051 1.85059 17.9062 1.85059 17.4462V4.55373C1.85059 4.09207 2.0195 3.69181 2.35734 3.35298C2.695 3.01398 3.09384 2.84448 3.55384 2.84448H20.4463C20.908 2.84448 21.3083 3.01398 21.6471 3.35298C21.9861 3.69181 22.1556 4.09207 22.1556 4.55373V17.4462C22.1556 17.9062 21.9861 18.3051 21.6471 18.6427C21.3083 18.9806 20.908 19.1495 20.4463 19.1495H15.8338V20.2977C15.8338 20.5424 15.7519 20.7455 15.5881 20.907C15.4243 21.0686 15.2203 21.1495 14.9761 21.1495H9.02409C8.77942 21.1495 8.57634 21.0686 8.41484 20.907C8.25317 20.7455 8.17234 20.5424 8.17234 20.2977V19.1495H3.55384ZM3.55384 17.4462H20.4463V4.55373H3.55384V17.4462Z" fill="currentColor"/>
</svg>
