<svg width="24" height="24" viewBox="0 0 24 24" fill="none" xmlns="http://www.w3.org/2000/svg">
<path d="M4.55384 21.1495C4.09384 21.1495 3.695 20.9806 3.35734 20.6427C3.0195 20.3051 2.85059 19.9062 2.85059 19.4462V4.55373C2.85059 4.09207 3.0195 3.69181 3.35734 3.35298C3.695 3.01398 4.09384 2.84448 4.55384 2.84448H19.4463C19.908 2.84448 20.3083 3.01398 20.6471 3.35298C20.9861 3.69181 21.1556 4.09207 21.1556 4.55373V13.1292C21.1556 13.3697 21.0722 13.5718 20.9053 13.7355C20.7383 13.8991 20.5343 13.981 20.2931 13.981C20.0518 13.981 19.8503 13.8991 19.6886 13.7355C19.5271 13.5718 19.4463 13.3697 19.4463 13.1292V4.55373H4.55384V19.4462H11.9511C12.1916 19.4462 12.3937 19.5285 12.5573 19.693C12.721 19.8575 12.8028 20.0606 12.8028 20.3022C12.8028 20.5439 12.721 20.7455 12.5573 20.907C12.3937 21.0686 12.1916 21.1495 11.9511 21.1495H4.55384ZM17.5441 19.7375L21.3403 15.9472C21.5085 15.7812 21.7063 15.6982 21.9338 15.6982C22.1613 15.6982 22.3607 15.7823 22.5318 15.9505C22.703 16.1185 22.7886 16.3206 22.7886 16.557C22.7886 16.7931 22.7037 16.9961 22.5338 17.1657L18.1468 21.5527C17.9788 21.7226 17.7794 21.8075 17.5486 21.8075C17.3178 21.8075 17.1173 21.7226 16.9473 21.5527L14.7473 19.3407C14.5735 19.1776 14.4866 18.9813 14.4866 18.752C14.4866 18.5228 14.5723 18.3232 14.7438 18.1532C14.9153 17.9832 15.1184 17.8982 15.3531 17.8982C15.5878 17.8982 15.79 17.9832 15.9598 18.1532L17.5441 19.7375ZM7.50009 12.75C7.70009 12.75 7.87509 12.675 8.02509 12.525C8.17509 12.375 8.25009 12.2 8.25009 12C8.25009 11.8 8.17509 11.625 8.02509 11.475C7.87509 11.325 7.70009 11.25 7.50009 11.25C7.30009 11.25 7.12509 11.325 6.97509 11.475C6.82509 11.625 6.75009 11.8 6.75009 12C6.75009 12.2 6.82509 12.375 6.97509 12.525C7.12509 12.675 7.30009 12.75 7.50009 12.75ZM7.50009 8.67398C7.70009 8.67398 7.87509 8.59998 8.02509 8.45198C8.17509 8.30398 8.25009 8.12798 8.25009 7.92398C8.25009 7.72398 8.17509 7.54898 8.02509 7.39898C7.87509 7.24898 7.70009 7.17398 7.50009 7.17398C7.30009 7.17398 7.12509 7.24898 6.97509 7.39898C6.82509 7.54898 6.75009 7.72398 6.75009 7.92398C6.75009 8.12798 6.82509 8.30398 6.97509 8.45198C7.12509 8.59998 7.30009 8.67398 7.50009 8.67398ZM16.1501 12.75C16.3626 12.75 16.5408 12.6776 16.6846 12.533C16.8283 12.3885 16.9001 12.2093 16.9001 11.9955C16.9001 11.7818 16.8283 11.6041 16.6846 11.4625C16.5408 11.3208 16.3626 11.25 16.1501 11.25H11.5501C11.3376 11.25 11.1595 11.3223 11.0158 11.467C10.872 11.6115 10.8001 11.7906 10.8001 12.0045C10.8001 12.2181 10.872 12.3958 11.0158 12.5375C11.1595 12.6791 11.3376 12.75 11.5501 12.75H16.1501ZM16.1501 8.67398C16.3626 8.67398 16.5408 8.60165 16.6846 8.45698C16.8283 8.31248 16.9001 8.13432 16.9001 7.92248C16.9001 7.71082 16.8283 7.53315 16.6846 7.38948C16.5408 7.24582 16.3626 7.17398 16.1501 7.17398H11.5501C11.3376 7.17398 11.1595 7.24723 11.0158 7.39373C10.872 7.5404 10.8001 7.71956 10.8001 7.93123C10.8001 8.14306 10.872 8.31982 11.0158 8.46148C11.1595 8.60315 11.3376 8.67398 11.5501 8.67398H16.1501Z" fill="currentColor"/>
</svg>
