<svg width="24" height="24" viewBox="0 0 24 24" fill="none" xmlns="http://www.w3.org/2000/svg">
<path d="M11.9751 6.11948C12.1886 6.11948 12.3729 6.0419 12.5281 5.88673C12.6833 5.73156 12.7608 5.54723 12.7608 5.33373C12.7608 5.12006 12.6833 4.93565 12.5281 4.78048C12.3729 4.62531 12.1886 4.54773 11.9751 4.54773C11.7616 4.54773 11.5773 4.62531 11.4221 4.78048C11.2669 4.93565 11.1893 5.12006 11.1893 5.33373C11.1893 5.54723 11.2669 5.73156 11.4221 5.88673C11.5773 6.0419 11.7616 6.11948 11.9751 6.11948ZM6.55984 23.1495C6.08567 23.1495 5.68225 22.9837 5.34959 22.6522C5.01692 22.3207 4.85059 21.9187 4.85059 21.4462V2.55373C4.85059 2.09207 5.02009 1.69181 5.35909 1.35298C5.69792 1.01398 6.09817 0.844482 6.55984 0.844482H17.3903C17.8645 0.844482 18.2679 1.01081 18.6006 1.34348C18.9333 1.67615 19.0996 2.07957 19.0996 2.55373V6.16998C19.3996 6.23748 19.6506 6.39248 19.8526 6.63498C20.0546 6.87748 20.1556 7.14998 20.1556 7.45248V9.29498C20.1556 9.61965 20.0546 9.90465 19.8526 10.15C19.6506 10.3953 19.3996 10.5509 19.0996 10.6167V13.6555C19.0996 13.895 19.0173 14.0958 18.8528 14.258C18.6883 14.42 18.4838 14.501 18.2391 14.501C17.9944 14.501 17.7928 14.4191 17.6343 14.2555C17.4757 14.0918 17.3963 13.8898 17.3963 13.6495V2.54773H6.55384V21.4522H9.99959C10.2409 21.4522 10.4432 21.5346 10.6063 21.6995C10.7695 21.8643 10.8511 22.0686 10.8511 22.3122C10.8511 22.5509 10.7692 22.7501 10.6053 22.9097C10.4415 23.0696 10.2416 23.1495 10.0056 23.1495H6.55984ZM14.5418 19.2977L16.1201 20.876C16.2901 21.048 16.3751 21.2491 16.3751 21.4792C16.3751 21.7094 16.2914 21.9075 16.1241 22.0735C15.9476 22.2408 15.7445 22.3255 15.5148 22.3275C15.2852 22.3295 15.0872 22.2455 14.9208 22.0755L12.7208 19.9005C12.5508 19.7288 12.4658 19.5285 12.4658 19.2995C12.4658 19.0705 12.5508 18.869 12.7208 18.695L14.9208 16.526C15.0907 16.3728 15.2906 16.2921 15.5206 16.2837C15.7504 16.2754 15.9536 16.3567 16.1301 16.5277C16.2941 16.6949 16.3749 16.8938 16.3726 17.1245C16.3703 17.3553 16.2861 17.5536 16.1201 17.7195L14.5418 19.2977ZM20.7006 19.2977L19.1223 17.7195C18.9525 17.5476 18.8676 17.3466 18.8676 17.1165C18.8676 16.8862 18.9521 16.6881 19.1211 16.5222C19.2948 16.3549 19.4967 16.2712 19.7268 16.2712C19.9572 16.2712 20.1555 16.3541 20.3218 16.52L22.5218 18.695C22.6918 18.8705 22.7768 19.0727 22.7768 19.3017C22.7768 19.5306 22.6918 19.7301 22.5218 19.9005L20.3218 22.0695C20.1518 22.2228 19.9519 22.3036 19.7221 22.312C19.4923 22.3203 19.2891 22.2394 19.1126 22.0692C18.9486 21.9029 18.8678 21.705 18.8701 21.4755C18.8723 21.2458 18.9563 21.046 19.1223 20.876L20.7006 19.2977Z" fill="currentColor"/>
</svg>
