<svg width="24" height="24" viewBox="0 0 24 24" fill="none" xmlns="http://www.w3.org/2000/svg">
<path d="M11.0116 11.422C9.92909 11.422 9.00667 11.0404 8.24434 10.277C7.48184 9.51371 7.10059 8.59605 7.10059 7.52405C7.10059 6.43321 7.48225 5.51038 8.24559 4.75555C9.00909 4.00055 9.92684 3.62305 10.9988 3.62305C12.0895 3.62305 13.0133 4.00088 13.7701 4.75655C14.5271 5.51221 14.9056 6.43046 14.9056 7.5113C14.9056 8.5938 14.5272 9.51621 13.7703 10.2785C13.0135 11.0409 12.0939 11.422 11.0116 11.422ZM10.9988 9.7188C11.617 9.7188 12.1378 9.50388 12.5613 9.07405C12.9847 8.64421 13.1963 8.12746 13.1963 7.5238C13.1963 6.90563 12.985 6.38488 12.5623 5.96155C12.1398 5.53821 11.6237 5.32655 11.0138 5.32655C10.404 5.32655 9.88317 5.53855 9.45134 5.96255C9.01967 6.38671 8.80384 6.90288 8.80384 7.51105C8.80384 8.12105 9.01875 8.64146 9.44859 9.0723C9.87842 9.5033 10.3952 9.7188 10.9988 9.7188ZM21.9191 23.1123L19.0708 20.2628C18.6867 20.5421 18.2923 20.733 17.8878 20.8353C17.4833 20.9378 17.0702 20.989 16.6483 20.989C15.4367 20.989 14.4067 20.5659 13.5583 19.7195C12.71 18.8732 12.2858 17.8455 12.2858 16.6365C12.2858 15.4275 12.7094 14.4001 13.5566 13.5543C14.4038 12.7085 15.4324 12.2855 16.6426 12.2855C17.8528 12.2855 18.8808 12.7097 19.7266 13.558C20.5723 14.4064 20.9951 15.4364 20.9951 16.648C20.9951 17.0699 20.9429 17.483 20.8386 17.8875C20.7343 18.292 20.5424 18.684 20.2631 19.0633L23.1186 21.9188C23.2924 22.0928 23.3793 22.2927 23.3793 22.5185C23.3793 22.7444 23.2924 22.9433 23.1186 23.1153C22.9446 23.2871 22.7447 23.373 22.5188 23.373C22.293 23.373 22.0931 23.2861 21.9191 23.1123ZM16.6361 19.2855C17.3906 19.2855 18.0208 19.0333 18.5268 18.5288C19.0328 18.0241 19.2858 17.3948 19.2858 16.6408C19.2858 15.887 19.0336 15.2565 18.5291 14.7495C18.0244 14.2425 17.3951 13.989 16.6411 13.989C15.8873 13.989 15.2578 14.2417 14.7528 14.747C14.2477 15.2525 13.9951 15.8828 13.9951 16.6378C13.9951 17.393 14.2471 18.023 14.7511 18.528C15.2549 19.033 15.8833 19.2855 16.6361 19.2855ZM2.85059 18.5238V17.719C2.85059 17.072 3.00342 16.52 3.30909 16.0628C3.61475 15.6056 4.0565 15.2294 4.63434 14.934C5.32684 14.588 6.21425 14.2569 7.29659 13.9405C8.37892 13.6242 9.45509 13.4514 10.5251 13.422C10.7699 13.422 10.9731 13.508 11.1346 13.68C11.2961 13.8519 11.3768 14.061 11.3768 14.3073C11.3768 14.5286 11.2961 14.7213 11.1346 14.8853C10.9733 15.0491 10.7701 15.1395 10.5251 15.1563C9.26242 15.2063 8.203 15.377 7.34684 15.6683C6.49067 15.9596 5.82617 16.2212 5.35334 16.453C5.12034 16.5854 4.92884 16.7635 4.77884 16.9873C4.62884 17.2113 4.55384 17.46 4.55384 17.7335V18.5238H10.6403C10.8817 18.5238 11.0839 18.606 11.2471 18.7705C11.4103 18.935 11.4918 19.1381 11.4918 19.3798C11.4918 19.6215 11.4103 19.823 11.2471 19.9845C11.0839 20.1462 10.8817 20.227 10.6403 20.227H4.55384C4.08134 20.227 3.67934 20.0602 3.34784 19.7265C3.01634 19.3929 2.85059 18.992 2.85059 18.5238Z" fill="currentColor"/>
</svg>
