<svg width="24" height="24" viewBox="0 0 24 24" fill="none" xmlns="http://www.w3.org/2000/svg">
<path d="M12.0001 12.7917C11.0208 12.7917 10.1992 12.4596 9.53534 11.7955C8.87134 11.1311 8.53934 10.3106 8.53934 9.33398C8.53934 8.35731 8.87134 7.53581 9.53534 6.86948C10.1992 6.20314 11.0208 5.86998 12.0001 5.86998C12.9794 5.86998 13.801 6.20314 14.4648 6.86948C15.1288 7.53581 15.4608 8.35731 15.4608 9.33398C15.4608 10.3106 15.1288 11.1311 14.4648 11.7955C13.801 12.4596 12.9794 12.7917 12.0001 12.7917ZM12.0001 11.22C12.5543 11.22 13.0077 11.0448 13.3603 10.6945C13.713 10.3441 13.8893 9.89064 13.8893 9.33398C13.8893 8.77731 13.713 8.32281 13.3603 7.97048C13.0077 7.61798 12.5543 7.44173 12.0001 7.44173C11.4459 7.44173 10.9925 7.61798 10.6398 7.97048C10.2872 8.32281 10.1108 8.77731 10.1108 9.33398C10.1108 9.89064 10.2872 10.3441 10.6398 10.6945C10.9925 11.0448 11.4459 11.22 12.0001 11.22ZM12.0001 3.63473L5.55384 6.06673V10.9222C5.55384 11.9621 5.69767 12.9561 5.98534 13.9045C6.273 14.853 6.6815 15.7296 7.21084 16.5342C7.97367 16.1256 8.74792 15.8191 9.53359 15.6147C10.3193 15.4104 11.1419 15.3082 12.0016 15.3082C12.8574 15.3082 13.6787 15.4104 14.4653 15.6147C15.2518 15.8191 16.0257 16.1256 16.7868 16.5342C17.3178 15.7296 17.7272 14.853 18.0148 13.9045C18.3025 12.9561 18.4463 11.9621 18.4463 10.9222V6.06673L12.0001 3.63473ZM12.0003 16.874C11.3542 16.874 10.716 16.9543 10.0858 17.115C9.45584 17.2756 8.83017 17.5166 8.20884 17.838C8.73417 18.4093 9.31384 18.9119 9.94784 19.3457C10.582 19.7794 11.2661 20.1232 12.0001 20.3772C12.7341 20.1232 13.4182 19.7794 14.0523 19.3457C14.6863 18.9119 15.266 18.4093 15.7913 17.838C15.17 17.5166 14.5443 17.2756 13.9143 17.115C13.2843 16.9543 12.6463 16.874 12.0003 16.874ZM12.0001 22.0435C11.9048 22.0435 11.8137 22.0341 11.7268 22.0155C11.6398 21.9968 11.5507 21.9688 11.4593 21.9315C9.12267 21.1481 7.27042 19.7259 5.90259 17.6647C4.53459 15.6034 3.85059 13.3568 3.85059 10.925V6.06673C3.85059 5.70623 3.95325 5.37789 4.15859 5.08173C4.36375 4.78556 4.62992 4.57314 4.95709 4.44448L11.4033 2.03748C11.6067 1.96281 11.8056 1.92548 12.0001 1.92548C12.1946 1.92548 12.3935 1.96281 12.5968 2.03748L19.0431 4.44448C19.3703 4.57314 19.6374 4.78556 19.8446 5.08173C20.0519 5.37789 20.1556 5.70623 20.1556 6.06673V10.925C20.1556 13.3568 19.4706 15.6034 18.1006 17.6647C16.7308 19.7259 14.8775 21.1481 12.5408 21.9315C12.4495 21.9688 12.3603 21.9968 12.2733 22.0155C12.1865 22.0341 12.0954 22.0435 12.0001 22.0435Z" fill="currentColor"/>
</svg>
