<svg width="24" height="24" viewBox="0 0 24 24" fill="none" xmlns="http://www.w3.org/2000/svg">
<path d="M4.55384 21.1497C4.09384 21.1497 3.695 20.9808 3.35734 20.643C3.0195 20.3053 2.85059 19.9065 2.85059 19.4465V4.55398C2.85059 4.09231 3.0195 3.69206 3.35734 3.35323C3.695 3.01423 4.09384 2.84473 4.55384 2.84473H13.5116C13.7519 2.84473 13.9539 2.92814 14.1176 3.09498C14.2813 3.26198 14.3631 3.46606 14.3631 3.70723C14.3631 3.94856 14.2813 4.15006 14.1176 4.31173C13.9539 4.47323 13.7519 4.55398 13.5116 4.55398H4.55384V19.4465H19.4463V10.4887C19.4463 10.2484 19.5286 10.0464 19.6931 9.88273C19.8576 9.71906 20.0605 9.63723 20.3018 9.63723C20.5432 9.63723 20.7458 9.71906 20.9096 9.88273C21.0736 10.0464 21.1556 10.2484 21.1556 10.4887V19.4465C21.1556 19.9065 20.9861 20.3053 20.6471 20.643C20.3083 20.9808 19.908 21.1497 19.4463 21.1497H4.55384ZM7.87259 10.2002C7.66092 10.2002 7.48425 10.2721 7.34259 10.4157C7.20092 10.5596 7.13009 10.7377 7.13009 10.9502V16.3252C7.13009 16.5377 7.20234 16.7158 7.34684 16.8595C7.4915 17.0033 7.66967 17.0752 7.88134 17.0752C8.09317 17.0752 8.27092 17.0033 8.41459 16.8595C8.55825 16.7158 8.63009 16.5377 8.63009 16.3252V10.9502C8.63009 10.7377 8.55675 10.5596 8.41009 10.4157C8.26359 10.2721 8.08442 10.2002 7.87259 10.2002ZM11.9956 6.92523C11.7819 6.92523 11.6043 6.99706 11.4626 7.14073C11.3209 7.28456 11.2501 7.46273 11.2501 7.67523V16.3252C11.2501 16.5377 11.3224 16.7158 11.4671 16.8595C11.6116 17.0033 11.7908 17.0752 12.0046 17.0752C12.2183 17.0752 12.3959 17.0033 12.5376 16.8595C12.6793 16.7158 12.7501 16.5377 12.7501 16.3252V7.67523C12.7501 7.46273 12.6778 7.28456 12.5331 7.14073C12.3886 6.99706 12.2094 6.92523 11.9956 6.92523ZM16.1188 13.3752C15.907 13.3752 15.7303 13.4471 15.5886 13.5907C15.4469 13.7346 15.3761 13.9127 15.3761 14.1252V16.3252C15.3761 16.5377 15.4484 16.7158 15.5931 16.8595C15.7376 17.0033 15.9158 17.0752 16.1276 17.0752C16.3393 17.0752 16.5169 17.0033 16.6606 16.8595C16.8043 16.7158 16.8761 16.5377 16.8761 16.3252V14.1252C16.8761 13.9127 16.8028 13.7346 16.6563 13.5907C16.5097 13.4471 16.3305 13.3752 16.1188 13.3752ZM17.3603 6.66498H15.8956C15.6739 6.66498 15.4881 6.58898 15.3381 6.43698C15.1881 6.28498 15.1131 6.09714 15.1131 5.87348C15.1131 5.65148 15.1887 5.46681 15.3398 5.31948C15.4912 5.17214 15.6786 5.09848 15.9021 5.09848H17.3608V3.63298C17.3608 3.41098 17.4366 3.22414 17.5881 3.07248C17.7396 2.92064 17.9273 2.84473 18.1513 2.84473C18.3735 2.84473 18.5583 2.92064 18.7056 3.07248C18.8531 3.22414 18.9268 3.41098 18.9268 3.63298V5.09848H20.3673C20.5893 5.09848 20.7762 5.17373 20.9278 5.32423C21.0797 5.47456 21.1556 5.66081 21.1556 5.88298C21.1556 6.10514 21.0797 6.29089 20.9278 6.44023C20.7762 6.58973 20.5893 6.66448 20.3673 6.66448H18.9268V8.10423C18.9268 8.32606 18.8517 8.51206 18.7013 8.66223C18.5512 8.81223 18.3651 8.88723 18.1431 8.88723C17.9209 8.88723 17.7349 8.81164 17.5851 8.66048C17.4353 8.50931 17.3603 8.32206 17.3603 8.09873V6.66498Z" fill="currentColor"/>
</svg>
