<svg width="24" height="24" viewBox="0 0 24 24" fill="none" xmlns="http://www.w3.org/2000/svg">
<path d="M12.0001 20.1378C11.7556 20.1378 11.5184 20.0902 11.2884 19.9948C11.0586 19.8997 10.8586 19.7484 10.6886 19.5411L2.63715 9.86333C2.50448 9.71017 2.40398 9.54342 2.33565 9.36308C2.26748 9.18292 2.2334 8.98917 2.2334 8.78183C2.2334 8.64933 2.25207 8.52092 2.2894 8.39658C2.32657 8.27225 2.37415 8.14383 2.43215 8.01133L4.4794 3.86658C4.62473 3.58075 4.83515 3.35392 5.11065 3.18608C5.38632 3.01808 5.68773 2.93408 6.0149 2.93408H17.9854C18.3126 2.93408 18.614 3.01808 18.8896 3.18608C19.1651 3.35392 19.3776 3.58075 19.5269 3.86658L21.5681 8.01133C21.6261 8.14383 21.6737 8.27225 21.7109 8.39658C21.7482 8.52092 21.7669 8.64933 21.7669 8.78183C21.7669 8.98917 21.7328 9.18292 21.6646 9.36308C21.5963 9.54342 21.4978 9.71017 21.3691 9.86333L13.3116 19.5411C13.1416 19.7484 12.9417 19.8997 12.7119 19.9948C12.4819 20.0902 12.2446 20.1378 12.0001 20.1378ZM9.19415 8.24983H14.8061L12.9609 4.56558H11.0394L9.19415 8.24983ZM11.2501 17.6673V9.74983H4.6649L11.2501 17.6673ZM12.7501 17.6673L19.3354 9.74983H12.7501V17.6673ZM16.4871 8.24983H19.7974L17.9584 4.56558H14.6419L16.4871 8.24983ZM4.2029 8.24983H7.51915L9.3584 4.56558H6.0419L4.2029 8.24983Z" fill="currentColor"/>
</svg>
