<svg width="24" height="24" viewBox="0 0 24 24" fill="none" xmlns="http://www.w3.org/2000/svg">
<path d="M8.30408 17.5875L12.0008 15.3675L15.7036 17.613L14.7133 13.42L17.9781 10.5755L13.6791 10.1995L11.9998 6.23251L10.3266 10.1745L6.02758 10.5565L9.29483 13.3968L8.30408 17.5875ZM11.9998 17.3588L7.46933 20.093C7.31617 20.1922 7.15458 20.2356 6.98458 20.2233C6.81475 20.2111 6.66342 20.1578 6.53058 20.0633C6.39792 19.9688 6.2985 19.8454 6.23233 19.6933C6.16617 19.5413 6.15367 19.3699 6.19483 19.1793L7.39008 14.0168L3.38558 10.5195C3.23642 10.391 3.14633 10.2455 3.11533 10.083C3.08433 9.92051 3.0875 9.7631 3.12483 9.61076C3.16217 9.45826 3.24817 9.32926 3.38283 9.22376C3.51733 9.1181 3.67992 9.05693 3.87058 9.04026L9.15808 8.57726L11.2041 3.69676C11.2788 3.52276 11.3918 3.39335 11.5431 3.30851C11.6943 3.22351 11.8465 3.18101 11.9998 3.18101C12.1532 3.18101 12.3054 3.22351 12.4566 3.30851C12.6079 3.39335 12.7209 3.52276 12.7956 3.69676L14.8463 8.57951L20.1351 9.04026C20.3218 9.05693 20.4823 9.1181 20.6168 9.22376C20.7515 9.32926 20.8375 9.45826 20.8748 9.61076C20.9122 9.7631 20.9163 9.92051 20.8873 10.083C20.8583 10.2455 20.7692 10.391 20.6198 10.5195L16.6156 14.0168L17.8106 19.1853C17.8479 19.3719 17.834 19.542 17.7688 19.6955C17.7037 19.8492 17.6055 19.9738 17.4743 20.0693C17.3433 20.1648 17.1925 20.2174 17.0218 20.2273C16.8513 20.2369 16.6895 20.1942 16.5363 20.099L11.9998 17.3588ZM19.4291 5.77726L17.7981 6.72726C17.7061 6.7686 17.6229 6.7631 17.5486 6.71076C17.4744 6.6586 17.454 6.58743 17.4873 6.49726L17.9123 4.69726L16.4873 3.49726C16.4127 3.44326 16.3888 3.37185 16.4158 3.28301C16.4428 3.19401 16.506 3.14118 16.6053 3.12451L18.5053 2.97451L19.2303 1.27451C19.2707 1.18318 19.3367 1.13751 19.4283 1.13751C19.5202 1.13751 19.5868 1.18318 19.6281 1.27451L20.3591 2.97451L22.2591 3.12451C22.3533 3.14051 22.4141 3.19318 22.4416 3.28251C22.4692 3.37168 22.4457 3.44326 22.3711 3.49726L20.9461 4.69726L21.3711 6.49726C21.4044 6.58743 21.3839 6.6586 21.3096 6.71076C21.2354 6.7631 21.1523 6.7686 21.0601 6.72726L19.4291 5.77726Z" fill="currentColor"/>
</svg>
