<svg width="24" height="24" viewBox="0 0 24 24" fill="none" xmlns="http://www.w3.org/2000/svg">
<path d="M11.9998 4.67786L3.56555 8.04786V19.4344H6.43405V13.3469C6.43405 12.8727 6.60089 12.4693 6.93456 12.1366C7.26805 11.8039 7.66897 11.6376 8.1373 11.6376H15.8623C16.3306 11.6376 16.7316 11.8039 17.0651 12.1366C17.3987 12.4693 17.5656 12.8727 17.5656 13.3469V19.4344H20.4341V8.04786L11.9998 4.67786ZM1.8623 19.4344V8.06686C1.8623 7.71236 1.96039 7.39203 2.15655 7.10586C2.35289 6.81969 2.6153 6.60961 2.9438 6.47561L11.3721 3.10561C11.5794 3.01828 11.7886 2.97461 11.9998 2.97461C12.211 2.97461 12.4202 3.01828 12.6276 3.10561L21.0618 6.47561C21.3863 6.60961 21.6467 6.81969 21.8431 7.10586C22.0392 7.39203 22.1373 7.71236 22.1373 8.06686V19.4344C22.1373 19.9027 21.9705 20.3036 21.6368 20.6371C21.3033 20.9708 20.9024 21.1376 20.4341 21.1376H15.9341V13.2751H8.06556V21.1376H3.56555C3.09722 21.1376 2.6963 20.9708 2.3628 20.6371C2.02914 20.3036 1.8623 19.9027 1.8623 19.4344ZM9.31556 21.1376V19.6376H10.8156V21.1376H9.31556ZM11.2498 18.1376V16.6376H12.7498V18.1376H11.2498ZM13.1841 21.1376V19.6376H14.6841V21.1376H13.1841Z" fill="currentColor"/>
</svg>
