<svg width="24" height="24" viewBox="0 0 24 24" fill="none" xmlns="http://www.w3.org/2000/svg">
<path d="M10.4501 12.625L11.9251 14.1C12.0596 14.2333 12.2307 14.3 12.4383 14.3C12.6462 14.3 12.8251 14.2333 12.9751 14.1L16.2501 10.825V12.025C16.2501 12.225 16.322 12.3958 16.4658 12.5375C16.6095 12.6791 16.7876 12.75 17.0001 12.75C17.2001 12.75 17.3751 12.6781 17.5251 12.5342C17.6751 12.3906 17.7501 12.2125 17.7501 12V8.99998C17.7501 8.79998 17.6751 8.62498 17.5251 8.47498C17.3751 8.32498 17.2001 8.24998 17.0001 8.24998H13.9751C13.7751 8.24998 13.6043 8.32498 13.4626 8.47498C13.3209 8.62498 13.2501 8.80415 13.2501 9.01248C13.2501 9.22082 13.322 9.39581 13.4658 9.53748C13.6095 9.67915 13.7876 9.74998 14.0001 9.74998H15.1751L12.4501 12.5L10.9751 11.025C10.8251 10.875 10.6462 10.8 10.4383 10.8C10.2307 10.8 10.0596 10.875 9.92509 11.025L6.87509 14.075C6.72509 14.225 6.65009 14.4044 6.65009 14.6132C6.65009 14.8219 6.72834 14.9938 6.88484 15.129C7.02834 15.2763 7.204 15.35 7.41184 15.35C7.6195 15.35 7.79059 15.275 7.92509 15.125L10.4501 12.625ZM4.55384 21.1495C4.09384 21.1495 3.695 20.9806 3.35734 20.6427C3.0195 20.3051 2.85059 19.9062 2.85059 19.4462V4.55373C2.85059 4.09207 3.0195 3.69181 3.35734 3.35298C3.695 3.01398 4.09384 2.84448 4.55384 2.84448H19.4463C19.908 2.84448 20.3083 3.01398 20.6471 3.35298C20.9861 3.69181 21.1556 4.09207 21.1556 4.55373V19.4462C21.1556 19.9062 20.9861 20.3051 20.6471 20.6427C20.3083 20.9806 19.908 21.1495 19.4463 21.1495H4.55384ZM4.55384 19.4462H19.4463V4.55373H4.55384V19.4462Z" fill="currentColor"/>
</svg>
