<svg width="24" height="24" viewBox="0 0 24 24" fill="none" xmlns="http://www.w3.org/2000/svg">
<path d="M8.34976 19.3518C6.28076 19.3518 4.52109 18.6264 3.07076 17.1755C1.62059 15.7249 0.895508 13.9633 0.895508 11.8908C0.895508 9.81828 1.62076 8.05745 3.07126 6.60828C4.52192 5.15895 6.28334 4.43428 8.35551 4.43428C10.4225 4.43428 12.1812 5.15945 13.6315 6.60978C15.0817 8.06011 15.8068 9.8212 15.8068 11.893C15.8068 13.9665 15.0812 15.728 13.63 17.1775C12.1787 18.627 10.4186 19.3518 8.34976 19.3518ZM8.34926 17.6843C9.96193 17.6843 11.3311 17.123 12.4568 16.0005C13.5826 14.878 14.1455 13.5104 14.1455 11.8978C14.1455 10.2851 13.5842 8.91495 12.4615 7.78728C11.339 6.65961 9.97051 6.09578 8.35601 6.09578C6.74134 6.09578 5.37117 6.65803 4.24551 7.78253C3.11967 8.90703 2.55676 10.2756 2.55676 11.8883C2.55676 13.5008 3.11792 14.8699 4.24026 15.9958C5.36259 17.1214 6.73226 17.6843 8.34926 17.6843ZM9.19376 11.781V8.98528C9.19376 8.75345 9.11251 8.55753 8.95001 8.39753C8.78751 8.23753 8.58842 8.15753 8.35276 8.15753C8.11709 8.15753 7.92042 8.23753 7.76276 8.39753C7.60526 8.55753 7.52651 8.75345 7.52651 8.98528V12.062C7.52651 12.1719 7.54509 12.2761 7.58226 12.3748C7.61959 12.4733 7.68392 12.5659 7.77526 12.6528L9.72476 14.6023C9.87926 14.7554 10.0703 14.832 10.298 14.832C10.5257 14.832 10.7141 14.7544 10.8633 14.599C11.0126 14.4435 11.0873 14.2506 11.0873 14.0203C11.0873 13.7898 11.0126 13.5979 10.8633 13.4445L9.19376 11.781ZM19.0258 7.01753L18.1725 7.86478C18.0067 8.03461 17.8128 8.11953 17.5908 8.11953C17.3689 8.11953 17.174 8.03461 17.006 7.86478C16.838 7.69478 16.754 7.49961 16.754 7.27928C16.754 7.05895 16.839 6.8642 17.009 6.69503L19.2318 4.47228C19.4081 4.30245 19.6138 4.21753 19.8488 4.21753C20.0839 4.21753 20.2884 4.30245 20.4623 4.47228L22.685 6.69503C22.851 6.86303 22.935 7.05753 22.937 7.27853C22.939 7.49936 22.856 7.69478 22.688 7.86478C22.5202 8.03461 22.3248 8.11853 22.1018 8.11653C21.8789 8.11453 21.6835 8.03061 21.5155 7.86478L20.6873 7.03053V19.3218C20.6873 19.5538 20.6064 19.7497 20.4448 19.9095C20.2831 20.0695 20.085 20.1495 19.8505 20.1495C19.616 20.1495 19.4199 20.0695 19.2623 19.9095C19.1046 19.7497 19.0258 19.5538 19.0258 19.3218V7.01753Z" fill="currentColor"/>
</svg>
