<svg width="24" height="24" viewBox="0 0 24 24" fill="none" xmlns="http://www.w3.org/2000/svg">
<path d="M10.9238 12.8277C11.1595 12.8277 11.3561 12.7473 11.5136 12.5864C11.6713 12.4254 11.7501 12.2283 11.7501 11.9949C11.7501 11.7616 11.6697 11.5652 11.5088 11.4057C11.3482 11.246 11.1513 11.1662 10.9181 11.1662C10.6804 11.1662 10.4828 11.247 10.3251 11.4087C10.1674 11.5704 10.0886 11.7685 10.0886 12.0032C10.0886 12.2377 10.1689 12.4337 10.3296 12.5912C10.4901 12.7489 10.6882 12.8277 10.9238 12.8277ZM6.55984 21.1434V19.4402L13.4163 18.2387V6.79244C13.4163 6.53911 13.3429 6.31494 13.1961 6.11994C13.0491 5.92511 12.8553 5.81103 12.6148 5.77769L6.55984 4.82069V3.14819L13.0186 4.26244C13.6276 4.36178 14.13 4.64678 14.5258 5.11744C14.9217 5.58828 15.1196 6.13828 15.1196 6.76744V18.2142C15.1196 18.6269 14.9845 18.9922 14.7143 19.3102C14.4442 19.628 14.1048 19.8221 13.6963 19.8924L6.55984 21.1434ZM6.55984 19.4402H17.4403V4.85169L6.55984 4.84569V4.82069V19.4402ZM3.70834 21.1494C3.46384 21.1494 3.25975 21.0672 3.09609 20.9027C2.93242 20.7382 2.85059 20.5341 2.85059 20.2904C2.85059 20.0468 2.93242 19.8441 3.09609 19.6824C3.25975 19.5209 3.46384 19.4402 3.70834 19.4402H4.85059V4.85169C4.85059 4.38336 5.01692 3.98236 5.34959 3.64869C5.68225 3.31503 6.08567 3.14819 6.55984 3.14819H17.4403C17.9145 3.14819 18.3179 3.31503 18.6506 3.64869C18.9833 3.98236 19.1496 4.38336 19.1496 4.85169V19.4402H20.2978C20.5383 19.4402 20.7404 19.5224 20.9041 19.6869C21.0678 19.8514 21.1496 20.0555 21.1496 20.2992C21.1496 20.5429 21.0678 20.7454 20.9041 20.9069C20.7404 21.0686 20.5383 21.1494 20.2978 21.1494H3.70834Z" fill="currentColor"/>
</svg>
