<svg width="24" height="24" viewBox="0 0 24 24" fill="none" xmlns="http://www.w3.org/2000/svg">
<path d="M0.844727 8.31531C0.844727 6.76914 1.36314 5.45981 2.39998 4.38731C3.43698 3.31497 4.71839 2.77881 6.24423 2.77881C7.19139 2.77881 8.06789 2.99364 8.87373 3.42331C9.67939 3.85314 10.3862 4.48506 10.9942 5.31906C11.7022 4.43906 12.4464 3.79564 13.2267 3.38881C14.0071 2.98214 14.8456 2.77881 15.7422 2.77881C17.0556 2.77881 18.1731 3.21214 19.095 4.07881C20.017 4.94548 20.6046 6.00781 20.8577 7.26581C20.9111 7.48981 20.8748 7.69472 20.749 7.88056C20.6233 8.06656 20.4481 8.18431 20.2232 8.23381C19.9984 8.28347 19.7938 8.24631 19.6095 8.12231C19.425 7.99831 19.3063 7.82364 19.2535 7.59831C19.1115 6.71364 18.735 5.97406 18.124 5.37956C17.5128 4.78522 16.7186 4.48806 15.7415 4.48806C14.88 4.48806 14.1062 4.73847 13.4202 5.23931C12.7341 5.73997 12.1946 6.38431 11.802 7.17231C11.7106 7.32964 11.5907 7.45689 11.4422 7.55406C11.2939 7.65139 11.1362 7.70006 10.9692 7.70006C10.7994 7.70006 10.6451 7.65239 10.5065 7.55706C10.3678 7.46189 10.2549 7.33364 10.1677 7.17231C9.77889 6.38031 9.24414 5.73498 8.56348 5.23631C7.88281 4.73748 7.10856 4.48806 6.24073 4.48806C5.15506 4.48806 4.26923 4.85414 3.58323 5.58631C2.89706 6.31848 2.55398 7.22739 2.55398 8.31306C2.55398 8.96856 2.68231 9.60439 2.93898 10.2206C3.19564 10.8367 3.64164 11.5367 4.27698 12.3206C4.91248 13.1044 5.77731 14.0191 6.87148 15.0646C7.96564 16.1101 9.33989 17.4 10.9942 18.9343L13.1322 17.0603C13.2859 16.9071 13.475 16.8356 13.6995 16.8456C13.924 16.8556 14.1159 16.9388 14.2752 17.0953C14.4456 17.2586 14.5297 17.4626 14.5277 17.7071C14.5257 17.9517 14.4314 18.1506 14.2447 18.3038L12.1447 20.1648C11.9789 20.314 11.7944 20.4217 11.5912 20.4881C11.3882 20.5544 11.1871 20.5876 10.988 20.5876C10.789 20.5876 10.5912 20.5525 10.3947 20.4823C10.1984 20.4121 10.0231 20.3 9.86873 20.1458C8.95606 19.303 7.97423 18.413 6.92323 17.4758C5.87239 16.5386 4.89706 15.5699 3.99723 14.5696C3.09739 13.5692 2.34706 12.5409 1.74623 11.4846C1.14523 10.4282 0.844727 9.37181 0.844727 8.31531ZM17.9692 13.8518H15.571C15.3305 13.8518 15.1284 13.7695 14.9647 13.6048C14.8011 13.4403 14.7192 13.2372 14.7192 12.9956C14.7192 12.7541 14.8011 12.5525 14.9647 12.3908C15.1284 12.2291 15.3305 12.1483 15.571 12.1483H17.9692V9.75006C17.9692 9.50972 18.0515 9.30772 18.216 9.14406C18.3805 8.98023 18.5836 8.89831 18.8252 8.89831C19.0669 8.89831 19.2686 8.98023 19.4302 9.14406C19.5917 9.30772 19.6725 9.50972 19.6725 9.75006V12.1483H22.071C22.3113 12.1483 22.5133 12.2306 22.677 12.3953C22.8406 12.5598 22.9225 12.7629 22.9225 13.0046C22.9225 13.2461 22.8406 13.4476 22.677 13.6093C22.5133 13.771 22.3113 13.8518 22.071 13.8518H19.6725V16.2501C19.6725 16.4904 19.5902 16.6924 19.4257 16.8561C19.2612 17.0199 19.0581 17.1018 18.8165 17.1018C18.5748 17.1018 18.3732 17.0199 18.2117 16.8561C18.0501 16.6924 17.9692 16.4904 17.9692 16.2501V13.8518Z" fill="currentColor"/>
</svg>
