<svg width="24" height="24" viewBox="0 0 24 24" fill="none" xmlns="http://www.w3.org/2000/svg">
<path d="M7.31188 11.0929C7.59588 10.5288 7.8998 9.96992 8.22363 9.41642C8.5473 8.86309 8.8908 8.33167 9.25413 7.82217L7.33913 7.43417L4.76338 10.0157L7.31188 11.0929ZM20.2049 3.46617C18.5049 3.56551 16.9895 3.93201 15.6586 4.56567C14.3278 5.19934 13.0224 6.15626 11.7424 7.43642C11.2295 7.94909 10.7041 8.61309 10.1661 9.42842C9.62813 10.2439 9.13047 11.1386 8.67313 12.1124L11.9624 15.4017C12.9324 14.9443 13.826 14.4487 14.6434 13.9147C15.4607 13.3805 16.1257 12.8571 16.6384 12.3444C17.9185 11.0604 18.8745 9.75617 19.5061 8.43167C20.1378 7.10717 20.5053 5.59492 20.6086 3.89492C20.6126 3.83309 20.6053 3.77417 20.5866 3.71817C20.568 3.66217 20.54 3.61351 20.5026 3.57217C20.4613 3.53484 20.4168 3.50684 20.3691 3.48817C20.3215 3.46951 20.2667 3.46217 20.2049 3.46617ZM14.4114 9.69442C14.0821 9.36509 13.9174 8.95959 13.9174 8.47792C13.9174 7.99626 14.0821 7.59076 14.4114 7.26142C14.7407 6.93592 15.1442 6.77317 15.6219 6.77317C16.0995 6.77317 16.503 6.93592 16.8324 7.26142C17.1619 7.59076 17.3266 7.99626 17.3266 8.47792C17.3266 8.95959 17.1619 9.36509 16.8324 9.69442C16.503 10.0198 16.0995 10.1824 15.6219 10.1824C15.1442 10.1824 14.7407 10.0198 14.4114 9.69442ZM12.9819 16.7879L14.0591 19.3114L16.6406 16.7357L16.2776 14.8207C15.7681 15.18 15.2325 15.5267 14.6709 15.8607C14.109 16.1948 13.5461 16.5039 12.9819 16.7879ZM22.3846 2.59167C22.4226 4.75884 22.0742 6.73151 21.3394 8.50967C20.6044 10.288 19.4615 11.9545 17.9109 13.5092C17.8862 13.5298 17.8615 13.5493 17.8369 13.5677C17.8122 13.5858 17.7875 13.6053 17.7629 13.6259L18.3189 16.3879C18.3769 16.6738 18.3655 16.9513 18.2849 17.2207C18.2044 17.4898 18.0625 17.728 17.8591 17.9352L14.3759 21.4124C14.1647 21.6236 13.912 21.7013 13.6179 21.6454C13.3237 21.5894 13.1206 21.4184 13.0086 21.1324L11.2726 17.1239L6.97588 12.8022L2.94238 11.0912C2.65638 10.9792 2.48955 10.7719 2.44188 10.4694C2.39438 10.1669 2.47622 9.91209 2.68738 9.70492L6.15163 6.24067C6.3588 6.03351 6.59397 5.88742 6.85713 5.80242C7.12047 5.71742 7.39505 5.70392 7.68088 5.76192L10.4489 6.31192C10.4696 6.29126 10.4911 6.27276 10.5136 6.25642C10.5363 6.24009 10.56 6.22159 10.5846 6.20092C12.1433 4.64226 13.8066 3.49642 15.5746 2.76342C17.3426 2.03042 19.3101 1.68101 21.4771 1.71517C21.593 1.71517 21.7027 1.73901 21.8064 1.78667C21.91 1.83434 22.0075 1.90376 22.0989 1.99492C22.194 2.08626 22.2655 2.18059 22.3131 2.27792C22.3608 2.37526 22.3846 2.47984 22.3846 2.59167ZM3.53963 15.8989C4.1548 15.2836 4.90013 14.9718 5.77563 14.9634C6.6513 14.9551 7.39672 15.2586 8.01188 15.8739C8.62305 16.4851 8.92447 17.2294 8.91613 18.1069C8.9078 18.9844 8.59805 19.7288 7.98688 20.3402C7.17172 21.1553 6.19438 21.6471 5.05488 21.8154C3.91538 21.9838 2.77372 22.1389 1.62988 22.2809C1.77188 21.1331 1.92288 19.9853 2.08288 18.8374C2.24272 17.6896 2.7283 16.7101 3.53963 15.8989ZM4.73913 17.1174C4.35497 17.5348 4.10755 18.0148 3.99688 18.5574C3.88622 19.1003 3.78288 19.6494 3.68688 20.2049C4.23838 20.1088 4.78647 20.0033 5.33113 19.8887C5.8758 19.774 6.35488 19.5247 6.76838 19.1407C7.08572 18.8733 7.24338 18.5371 7.24138 18.1319C7.23938 17.7269 7.09638 17.3721 6.81238 17.0674C6.50772 16.7833 6.1528 16.6412 5.74763 16.6412C5.34263 16.6412 5.00647 16.7999 4.73913 17.1174Z" fill="currentColor"/>
</svg>
