<svg width="24" height="24" viewBox="0 0 24 24" fill="none" xmlns="http://www.w3.org/2000/svg">
<path d="M8.41034 11.045C8.41034 11.8551 8.82542 12.6548 9.65559 13.444C10.4856 14.2331 11.1704 14.8721 11.7101 15.361C11.8063 15.4435 11.9023 15.4847 11.9983 15.4847C12.0943 15.4847 12.1906 15.4426 12.2871 15.3582C12.8256 14.8736 13.5107 14.2375 14.3423 13.45C15.174 12.6625 15.5898 11.8594 15.5898 11.0407C15.5898 10.4992 15.3948 10.0348 15.0046 9.64748C14.6144 9.25998 14.1517 9.06623 13.6163 9.06623C13.2922 9.06623 12.9886 9.13173 12.7056 9.26273C12.4226 9.39373 12.1874 9.56756 12.0001 9.78423C11.8203 9.56539 11.5869 9.39106 11.3001 9.26123C11.0133 9.13123 10.7038 9.06623 10.3718 9.06623C9.83417 9.06623 9.37284 9.26231 8.98784 9.65448C8.60284 10.0466 8.41034 10.5101 8.41034 11.045ZM12.0001 22.0435C11.8994 22.0435 11.8052 22.0341 11.7173 22.0155C11.6293 21.9968 11.5433 21.9688 11.4593 21.9315C9.12267 21.1481 7.27042 19.7259 5.90259 17.6647C4.53459 15.6034 3.85059 13.3559 3.85059 10.9222V6.06673C3.85059 5.70206 3.95217 5.37239 4.15534 5.07773C4.3585 4.78306 4.62575 4.57198 4.95709 4.44448L11.4033 2.03748C11.6067 1.96281 11.8056 1.92548 12.0001 1.92548C12.1946 1.92548 12.3935 1.96281 12.5968 2.03748L19.0431 4.44448C19.3744 4.57198 19.6427 4.78306 19.8478 5.07773C20.053 5.37239 20.1556 5.70206 20.1556 6.06673V10.9222C20.1556 13.3559 19.4706 15.6034 18.1006 17.6647C16.7308 19.7259 14.8775 21.1481 12.5408 21.9315C12.4568 21.9688 12.3708 21.9968 12.2828 22.0155C12.195 22.0341 12.1008 22.0435 12.0001 22.0435ZM12.0001 20.3772C13.8968 19.7239 15.4453 18.5271 16.6458 16.7867C17.8462 15.0462 18.4463 13.0929 18.4463 10.9267V6.06673L12.0001 3.63473L5.55384 6.06973V10.924C5.55384 13.092 6.154 15.0462 7.35434 16.7867C8.55484 18.5271 10.1034 19.7239 12.0001 20.3772Z" fill="currentColor"/>
</svg>
