<svg width="24" height="24" viewBox="0 0 24 24" fill="none" xmlns="http://www.w3.org/2000/svg">
<path d="M8.15882 17.7554L12.0001 15.4591L15.8413 17.7804L14.8093 13.4319L18.1876 10.4916L13.7333 10.1036L12.0001 5.99936L10.2668 10.0846L5.81257 10.4666L9.19082 13.4009L8.15882 17.7554ZM12.0001 17.4424L7.33807 20.2541C7.18091 20.3494 7.01732 20.3919 6.84732 20.3816C6.67749 20.3713 6.52624 20.3184 6.39357 20.2231C6.26091 20.1279 6.16241 20.0047 6.09807 19.8534C6.03391 19.7022 6.02041 19.5313 6.05757 19.3406L7.28857 14.0286L3.17682 10.4416C3.02749 10.3131 2.93632 10.168 2.90332 10.0064C2.87032 9.84486 2.87449 9.68745 2.91582 9.53411C2.95316 9.38078 3.03916 9.25136 3.17382 9.14586C3.30832 9.0402 3.47091 8.97903 3.66157 8.96236L9.09832 8.48736L11.2043 3.46936C11.279 3.29553 11.392 3.16611 11.5433 3.08111C11.6945 2.99611 11.8467 2.95361 12.0001 2.95361C12.1534 2.95361 12.3057 2.99611 12.4568 3.08111C12.6082 3.16611 12.7212 3.29553 12.7958 3.46936L14.9018 8.48736L20.3446 8.96236C20.5312 8.97903 20.6918 9.0402 20.8263 9.14586C20.961 9.25136 21.047 9.38078 21.0843 9.53411C21.1257 9.68745 21.1298 9.84486 21.0968 10.0064C21.0638 10.168 20.9727 10.3131 20.8233 10.4416L16.7116 14.0286L17.9426 19.3406C17.9797 19.5313 17.9662 19.7022 17.9021 19.8534C17.8377 20.0047 17.7392 20.1279 17.6066 20.2231C17.4739 20.3184 17.3227 20.3713 17.1528 20.3816C16.9828 20.3919 16.8192 20.3494 16.6621 20.2541L12.0001 17.4424Z" fill="currentColor"/>
</svg>
